<svg width="52.2" height="43.6" data-name="Layer 1" xmlns="http://www.w3.org/2000/svg" viewBox="0 0 522.275 436.113"><path d="M204.94 436.113c-.737-7.246-1.332-12.985-1.901-18.727-3.136-31.66-6.336-63.313-9.307-94.989-.376-4.01-1.665-5.264-5.727-5.25-40.826.13-81.655-.162-122.48.138-24.388.18-41.697-11.609-54.886-30.807C3.069 275.46-.018 263.072.012 249.642Q.22 157.152 0 64.66C-.074 31.617 31.113.066 64.445.052q133.74-.057 267.48.014 61.495 0 122.99-.066c37.777 0 67.96 31.794 67.258 69.566-.675 36.314-.213 72.65-.256 108.976-.03 25.66 1.054 51.385-.411 76.964-1.577 27.529-16.899 46.804-42.087 57.647a52.239 52.239 0 0 1-19.837 3.865c-47.491.317-94.986.22-142.479.071-4.545-.014-7.601 1.224-10.68 4.74q-48.546 55.425-97.455 110.531c-.84.95-1.858 1.743-4.028 3.753zm23.362-83.165l1.182.606c1.025-1.253 2.006-2.544 3.081-3.752q29.058-32.65 58.086-65.326c2.523-2.856 5.13-4.422 9.027-4.154 5.475.376 10.974.535 16.463.536 46.156.012 92.311.082 138.466-.13a30.006 30.006 0 0 0 29.43-25.104c.965-5.686.733-11.605.738-17.418.019-18.656-.137-37.312-.17-55.968-.066-37.973.247-75.95-.287-113.917-.263-18.62-13.708-30.85-32.324-30.856q-190.708-.06-381.416-.006c-20.61.006-33.261 12.878-33.297 33.525q-.077 43.99-.132 87.98c-.083 28.816.027 57.636-.463 86.444-.38 22.263 15.031 36.73 35.152 35.732 11.968-.595 23.99-.059 35.987-.125q52.971-.29 105.942-.671c3.85-.027 7.248-.145 7.703 5.283 1.14 13.592 2.67 27.152 4.06 40.723q1.364 13.301 2.772 26.598z" fill="#fff"/><path d="M262.89 258.35c-12.428-.08-12.428-.08-12.458-12.285-.023-9.167-.133-8.654-8.956-10.545-8.72-1.869-17.232-4.783-25.716-7.597-1.36-.451-3.194-3.015-2.94-4.201 1.496-6.983 3.628-13.826 5.374-20.76.916-3.634 2.651-3.907 5.791-2.387 11.72 5.673 24.05 8.83 37.168 7.865a34.214 34.214 0 0 0 8.715-1.934c4.499-1.582 7.705-4.624 8.414-9.6a11.489 11.489 0 0 0-5.95-12.27 160.32 160.32 0 0 0-22.119-10.111c-10.171-3.674-19.706-8.233-27.107-16.227-16.05-17.334-11.46-45.019 9.731-58.072a66.51 66.51 0 0 1 15.036-6.358c3.159-.989 4.315-2.312 4.135-5.511-.243-4.319.05-8.67-.224-12.985-.2-3.154 1.103-4.16 4.03-4.117 5.16.078 10.328.104 15.485-.066 3.776-.125 4.997 1.666 4.75 5.16-.233 3.32-.178 6.66-.414 9.98-.239 3.367 1.215 4.4 4.538 4.985 7.979 1.403 15.886 3.305 23.724 5.375 3.87 1.022 4.893 3.706 3.465 7.756-1.763 5-2.792 10.257-4.238 15.374-1.553 5.497-2.334 5.915-7.752 3.58-10.945-4.72-22.223-6.834-34.094-4.799-6.72 1.153-10.408 4.255-11.411 9.49-.854 4.452 1.893 9.232 7.906 12.029 10.543 4.903 21.565 8.83 31.897 14.12 22.712 11.633 27.46 25.725 24.18 46.843-1.96 12.615-10.765 22.361-22.68 28.198a63.726 63.726 0 0 1-12.616 4.664c-3.172.785-3.97 2.401-3.932 5.23.067 4.83-.248 9.68.095 14.486.278 3.889-1.198 5.08-4.835 4.732-2.31-.222-4.66-.041-6.991-.041zM436.932 104.917l-40.872 55.1c11.812 10.231 18.21 25.344 27.383 38.465 4.578 6.548 8.895 13.28 13.273 19.966 1.043 1.594 1.856 3.338 3.215 5.814-10.899 0-20.818.316-30.688-.243-2.215-.125-4.806-2.942-6.289-5.149-8.634-12.843-16.914-25.925-25.51-38.794-1.48-2.215-3.598-4.76-5.945-5.507-9.657-3.07-11.041-1.82-11.01 8.33.039 12.329-.03 24.658.128 36.985.043 3.344-.86 4.812-4.491 4.692-6.656-.219-13.33-.151-19.988.065-3.563.115-5.02-.922-5.01-4.775q.162-55.728-.023-111.456c-.013-3.973 1.463-5.348 5.261-5.254 6.327.155 12.665.201 18.99.004 4.194-.13 5.405 1.652 5.337 5.667-.204 12.158-.154 24.323-.024 36.484.022 2.13.95 6.089 1.386 6.079a21.927 21.927 0 0 0 8.942-1.77c1.896-.924 3.151-3.343 4.466-5.251 7.455-10.826 14.985-21.605 22.189-32.597 3.367-5.138 7.526-8.359 13.791-8.382 8.218-.03 16.436-.007 24.653-.007l.836 1.534zM81.067 224.542c3.423-8.75 6.46-16.442 9.444-24.154 11.885-30.714 23.818-61.41 35.548-92.182 1.428-3.744 3.337-5.172 7.326-4.989 6.651.305 13.329.182 19.99.038 2.9-.063 4.531.91 5.614 3.72q21.88 56.799 43.913 113.539a35.953 35.953 0 0 1 .973 3.89c-8.642 0-16.989.618-25.147-.35-2.685-.32-5.6-4.377-7.136-7.376-2.246-4.387-3.49-9.32-4.88-14.1-.865-2.973-2.276-4.4-5.58-4.373-12.497.104-24.998-.145-37.491.086-1.514.028-3.693 1.87-4.35 3.394-2.168 5.022-3.819 10.27-5.59 15.46-1.716 5.03-5.007 7.565-10.476 7.437-6.967-.164-13.94-.04-22.158-.04zm61.657-92.46l-15.24 44.996h30.548l-15.308-44.996z" fill="#fff"/></svg>